<?xml version="1.0" encoding="utf-8"?>
<!-- Generator: Adobe Illustrator 15.1.0, SVG Export Plug-In . SVG Version: 6.00 Build 0)  -->
<!DOCTYPE svg PUBLIC "-//W3C//DTD SVG 1.1//EN" "http://www.w3.org/Graphics/SVG/1.1/DTD/svg11.dtd">
<svg version="1.1" id="Layer_1" xmlns="http://www.w3.org/2000/svg" xmlns:xlink="http://www.w3.org/1999/xlink" x="0px" y="0px"
	 width="559px" height="202px" viewBox="0 0 559 202" enable-background="new 0 0 559 202" xml:space="preserve">
<path fill="none" d="M126.084,97.409c0-39.481-23.101-63.002-55.442-63.002c-12.18,0-18.901,3.36-27.721,3.36
	c-5.46,0-7.98-0.84-12.18-0.84c-18.061,0-26.881,9.66-26.881,28.141v102.483c0,16.381,5.46,30.241,23.101,30.241
	c10.5,0,18.48-5.25,21.001-12.181c5.46-14.49,5.04-21.84,19.741-21.84C92.063,163.771,126.084,152.851,126.084,97.409z
	 M51.322,97.409c0-12.601,6.3-21,14.701-21s13.86,10.5,13.86,23.101c0,15.121-7.56,22.261-14.7,22.261
	C56.782,121.77,51.322,113.369,51.322,97.409z M176.899,162.931c-28.561,0-41.162-20.581-41.162-44.941V62.127
	c0-18.48,11.341-26.041,22.261-26.041c15.96,0,25.201,9.66,25.201,27.721v34.441c0,11.34,2.94,17.221,8.82,17.221
	c5.88,0,9.24-8.82,9.24-19.741V63.808c0-15.96,7.56-27.721,23.94-27.721c15.541,0,23.521,10.08,23.521,29.821v68.042
	c0,17.221-10.5,26.041-23.941,26.041h-7.56c-6.3,0-3.36-0.42-11.761-0.42C197.06,159.571,188.239,162.931,176.899,162.931z
	 M311.298,136.89c0,15.96-8.82,28.561-26.46,28.561c-12.601,0-25.201-8.4-25.201-31.921l0.42-105.423
	c0-15.121,7.14-28.561,24.781-28.561c16.38,0,26.46,8.82,26.46,33.181V136.89z M372.197,34.617c31.081,0,49.142,10.5,49.142,24.781
	c0,11.76-10.71,15.96-10.081,21.841c0.63,5.88,6.72,10.92,8.82,13.44c8.4,10.5,9.661,15.541,9.661,22.681
	c0,27.301-21.421,47.042-54.602,47.042c-34.441,0-54.602-12.601-54.602-28.561c0-14.28,13.86-17.641,13.86-23.94
	c0-5.88-4.62-8.82-8.82-15.961c-2.94-5.04-5.04-11.76-5.04-17.64C320.535,53.938,341.956,34.617,372.197,34.617z M438.974,100.769
	c0-39.481,26.881-64.262,58.382-64.262c38.641,0,58.802,27.301,58.802,53.762c0,5.04-0.42,9.66-5.88,18.48
	c-2.94,4.62-2.1,6.72-2.1,7.98c0,6.3,2.1,6.72,2.1,13.86c0,18.9-26.461,31.921-49.562,31.921
	C458.714,162.511,438.974,132.27,438.974,100.769z M494.416,118.409c0-1.26,2.1-4.62,7.98-4.62c2.94,0,7.561,1.26,7.561,4.2
	c0,4.62-5.041,5.88-7.98,5.88C499.456,123.87,494.416,123.029,494.416,118.409z M489.375,74.728c0-3.78,3.78-8.4,10.5-8.4
	c4.62,0,10.5,2.52,10.5,8.4c0,6.72-5.04,8.4-10.92,8.4C495.675,83.128,489.375,81.028,489.375,74.728z"/>
</svg>
